<svg xmlns="http://www.w3.org/2000/svg" fill="current" viewBox="0 0 649 66">
  <path fill="current" d="M19.31 24.04H.91v-8.87h46.91v8.87h-18.4v40.98h-10.1V24.04Zm56.29-8.87h10.7l24.11 49.85H99.8l-3.98-8.39H66.7l-3.86 8.39H52.2l23.4-49.85Zm16.23 33.14L81.05 25.66 70.56 48.31h21.27Zm.22-36.52a7.77 7.77 0 0 1-2.8-.48 6.52 6.52 0 0 1-2.12-1.29 5.6 5.6 0 0 1-1.8-4.06 5.31 5.31 0 0 1 1.8-4A6.4 6.4 0 0 1 89.25.72c.83-.3 1.76-.45 2.8-.45 1.05 0 1.99.15 2.83.45.84.3 1.55.7 2.13 1.22a5.33 5.33 0 0 1 1.34 6.2 5.6 5.6 0 0 1-1.34 1.87 6.5 6.5 0 0 1-2.13 1.3 7.9 7.9 0 0 1-2.83.47Zm-22.03 0a7.76 7.76 0 0 1-2.8-.48 6.51 6.51 0 0 1-2.13-1.29 5.6 5.6 0 0 1-1.8-4.06 5.31 5.31 0 0 1 1.8-4c.58-.53 1.3-.94 2.12-1.23.83-.3 1.77-.45 2.8-.45a8.4 8.4 0 0 1 2.83.45c.84.3 1.55.7 2.14 1.22a5.33 5.33 0 0 1 1.34 6.2 5.6 5.6 0 0 1-1.34 1.87 6.8 6.8 0 0 1-2.14 1.3 7.9 7.9 0 0 1-2.82.47Zm63.43 40.89-21.78-37.5h11.44l15.35 28.34 15.14-28.35h11.45l-21.5 37.44v12.4h-10.1V52.69Zm54.27-28.64h-18.4v-8.87h46.92v8.87h-18.4v40.98h-10.12V24.04Zm54.31 0h-18.4v-8.87h46.91v8.87h-18.4v40.98h-10.1V24.04Zm36.36 15.91c0-3.76.7-7.2 2.07-10.33a23.42 23.42 0 0 1 5.82-8.05c2.5-2.25 5.5-3.98 9-5.22a34.76 34.76 0 0 1 11.62-1.85c4.23 0 8.1.62 11.6 1.85a26.4 26.4 0 0 1 9.02 5.22 23.41 23.41 0 0 1 5.82 8.05 25.29 25.29 0 0 1 2.07 10.33c0 3.79-.7 7.26-2.07 10.41a23.8 23.8 0 0 1-5.82 8.15 26.61 26.61 0 0 1-9.01 5.31 34.01 34.01 0 0 1-11.61 1.9 33.8 33.8 0 0 1-11.62-1.9 26.63 26.63 0 0 1-9-5.3 23.8 23.8 0 0 1-5.82-8.16 25.7 25.7 0 0 1-2.07-10.4Zm10.1 0c0 2.57.47 4.9 1.4 6.95a15.33 15.33 0 0 0 3.85 5.28 17.4 17.4 0 0 0 5.84 3.37c2.24.78 4.68 1.18 7.32 1.18 2.64 0 5.08-.4 7.32-1.18 2.24-.8 4.18-1.91 5.82-3.37a15.6 15.6 0 0 0 3.86-5.28c.93-2.06 1.4-4.38 1.4-6.95 0-2.57-.47-4.88-1.4-6.92a15.02 15.02 0 0 0-3.86-5.18 16.98 16.98 0 0 0-5.82-3.24 23.12 23.12 0 0 0-7.32-1.11c-2.64 0-5.08.37-7.32 1.11a17.15 17.15 0 0 0-5.84 3.24 14.76 14.76 0 0 0-3.85 5.18 16.6 16.6 0 0 0-1.4 6.92ZM317.9 11.8a7.78 7.78 0 0 1-2.8-.48 6.54 6.54 0 0 1-2.13-1.29 5.6 5.6 0 0 1-1.8-4.06 5.3 5.3 0 0 1 1.8-4A6.2 6.2 0 0 1 315.1.74c.82-.3 1.76-.45 2.8-.45a8.4 8.4 0 0 1 2.82.45c.84.3 1.56.7 2.14 1.22a5.33 5.33 0 0 1 1.34 6.2 5.6 5.6 0 0 1-1.34 1.87 6.7 6.7 0 0 1-2.14 1.3 7.9 7.9 0 0 1-2.82.47Zm-22.03 0a7.77 7.77 0 0 1-2.81-.48 6.53 6.53 0 0 1-2.12-1.29 5.58 5.58 0 0 1-1.8-4.06 5.3 5.3 0 0 1 1.8-4 6.4 6.4 0 0 1 2.12-1.23c.83-.3 1.76-.45 2.8-.45 1.05 0 1.99.15 2.83.45.84.3 1.55.7 2.13 1.22a5.33 5.33 0 0 1 1.34 6.2 5.6 5.6 0 0 1-1.34 1.87c-.58.54-1.3.97-2.13 1.3a7.9 7.9 0 0 1-2.82.47Zm50.76 3.37h26.28c3.83 0 7.15.42 9.95 1.25a19 19 0 0 1 6.99 3.58 14.4 14.4 0 0 1 4.13 5.73 20.4 20.4 0 0 1 1.35 7.62c0 2.66-.44 5.11-1.34 7.37a15.37 15.37 0 0 1-4.1 5.85 19.38 19.38 0 0 1-6.96 3.86 32.1 32.1 0 0 1-9.95 1.38l-16.24-.03v13.24h-10.1V15.17Zm26.54 27.87c1.91 0 3.59-.22 5.02-.68a10.1 10.1 0 0 0 3.6-1.95 7.83 7.83 0 0 0 2.17-3.06c.48-1.2.72-2.53.72-4 0-2.96-.96-5.26-2.88-6.9-1.93-1.65-4.8-2.48-8.63-2.48h-16.43v19.07h16.43Zm50.19-27.87h10.72l24.1 49.85h-10.61l-3.99-8.39h-29.11l-3.86 8.39h-10.65l23.4-49.85Zm16.24 33.14-10.78-22.65-10.5 22.65h21.28Zm35.23-33.14h-10.17v49.85h10.17V15.17Zm12.89 0h10.1v25.8l26.32-25.8h12.95l-24.56 23.8 24.56 26.05h-13.46l-18.37-19-7.43 7.17v11.83h-10.11V15.17Zm54.34 0h10.1v25.8l26.32-25.8h12.95l-24.56 23.8 24.56 26.05h-13.46l-18.37-19-7.43 7.17v11.83h-10.11V15.17Z"/>
  <path fill="current" d="M613.4 15.17h10.71l24.11 49.85H637.6l-3.98-8.39H604.5l-3.86 8.39H590l23.4-49.85Zm16.23 33.14-10.78-22.65-10.49 22.65h21.27Z"/>
</svg>
