<svg width="121" height="168" viewBox="0 0 121 168" fill="none" xmlns="http://www.w3.org/2000/svg">
<path fill-rule="evenodd" clip-rule="evenodd" d="M24.3406 20.6327V12.8202H13.9639C11.2732 12.8202 9.09002 10.6354 9.09002 7.94471V5.12922C9.09002 2.43853 11.2732 0.255371 13.9639 0.255371H107.051C109.742 0.255371 111.927 2.43853 111.927 5.12922V7.94471C111.927 10.6354 109.742 12.8202 107.051 12.8202H98.1456V20.6327H104.256C113.077 20.6327 120.239 27.7946 120.239 36.6154V151.763C120.239 160.583 113.077 167.745 104.256 167.745H79.2243C70.4034 167.745 63.2416 160.583 63.2416 151.763V138.95H57.7753V151.763C57.7753 160.583 50.6135 167.745 41.7926 167.745H16.7594C7.93852 167.745 0.77832 160.583 0.77832 151.763V36.6154C0.77832 27.7946 7.93852 20.6327 16.7594 20.6327H24.3406ZM113.305 138.941C113.186 138.946 113.065 138.95 112.944 138.95H70.1754V151.763C70.1754 156.756 74.229 160.811 79.2243 160.811H104.256C109.251 160.811 113.305 156.756 113.305 151.763V138.941ZM7.71054 138.941V151.763C7.71054 156.756 11.7657 160.811 16.7594 160.811H41.7926C46.7863 160.811 50.8414 156.756 50.8414 151.763V138.95H8.07165C7.95018 138.95 7.83035 138.946 7.71054 138.941ZM113.305 124V131.655C113.305 131.854 113.143 132.016 112.944 132.016H8.07165C7.87197 132.016 7.71054 131.854 7.71054 131.655V124C7.71054 123.801 7.87197 123.639 8.07165 123.639H112.944C113.143 123.639 113.305 123.801 113.305 124ZM113.305 72.3814C113.186 72.3864 113.065 72.3898 112.944 72.3898H70.1754V116.705H112.944C113.065 116.705 113.186 116.709 113.305 116.714V72.3814ZM7.71054 72.3814V116.714C7.83035 116.709 7.95018 116.705 8.07165 116.705H50.8414V72.3898H8.07165C7.95018 72.3898 7.83035 72.3864 7.71054 72.3814ZM57.7753 72.3898V116.705H63.2416V72.3898H57.7753ZM113.305 57.4404V65.0948C113.305 65.2945 113.143 65.4559 112.944 65.4559H8.07165C7.87197 65.4559 7.71054 65.2945 7.71054 65.0948V57.4404C7.71054 57.2407 7.87197 57.0793 8.07165 57.0793H112.944C113.143 57.0793 113.305 57.2407 113.305 57.4404ZM113.305 50.1538V36.6154C113.305 31.6201 109.251 27.5666 104.256 27.5666H79.2243C74.229 27.5666 70.1754 31.6201 70.1754 36.6154V50.1454H112.944C113.065 50.1454 113.186 50.1488 113.305 50.1538ZM50.8414 50.1454V36.6154C50.8414 31.6201 46.7863 27.5666 41.7926 27.5666H16.7594C11.7657 27.5666 7.71054 31.6201 7.71054 36.6154V50.1538C7.83035 50.1488 7.95018 50.1454 8.07165 50.1454H50.8414ZM88.2731 20.6327V12.8202H34.2114V20.6327H41.7926C50.6135 20.6327 57.7753 27.7946 57.7753 36.6154V50.1454H63.2416V36.6154C63.2416 27.7946 70.4034 20.6327 79.2243 20.6327H88.2731Z" fill="currentColor"/>
</svg>
